<mxfile host="app.diagrams.net" agent="Mozilla/5.0 (Windows NT 10.0; Win64; x64) AppleWebKit/537.36 (KHTML, like Gecko) Chrome/132.0.0.0 Safari/537.36 OPR/117.0.0.0" version="26.1.3">
  <diagram name="PÃ¡gina-1" id="elbEnsU3kSPVsOM1JpKO">
    <mxGraphModel grid="1" page="1" gridSize="10" guides="1" tooltips="1" connect="1" arrows="1" fold="1" pageScale="1" pageWidth="827" pageHeight="1169" math="0" shadow="0">
      <root>
        <mxCell id="0" />
        <mxCell id="1" parent="0" />
        <mxCell id="e4gDPcq4KXXT7IiUsTkn-3" value="" style="edgeStyle=orthogonalEdgeStyle;rounded=0;orthogonalLoop=1;jettySize=auto;html=1;" edge="1" parent="1" source="e4gDPcq4KXXT7IiUsTkn-1" target="e4gDPcq4KXXT7IiUsTkn-2">
          <mxGeometry relative="1" as="geometry" />
        </mxCell>
        <mxCell id="e4gDPcq4KXXT7IiUsTkn-1" value="inicio" style="ellipse;whiteSpace=wrap;html=1;" vertex="1" parent="1">
          <mxGeometry x="413" y="70" width="120" height="80" as="geometry" />
        </mxCell>
        <mxCell id="e4gDPcq4KXXT7IiUsTkn-5" value="" style="edgeStyle=orthogonalEdgeStyle;rounded=0;orthogonalLoop=1;jettySize=auto;html=1;" edge="1" parent="1" source="e4gDPcq4KXXT7IiUsTkn-2" target="e4gDPcq4KXXT7IiUsTkn-4">
          <mxGeometry relative="1" as="geometry" />
        </mxCell>
        <mxCell id="e4gDPcq4KXXT7IiUsTkn-2" value="num1, num2" style="shape=parallelogram;perimeter=parallelogramPerimeter;whiteSpace=wrap;html=1;fixedSize=1;" vertex="1" parent="1">
          <mxGeometry x="413" y="170" width="120" height="60" as="geometry" />
        </mxCell>
        <mxCell id="e4gDPcq4KXXT7IiUsTkn-7" value="" style="edgeStyle=orthogonalEdgeStyle;rounded=0;orthogonalLoop=1;jettySize=auto;html=1;" edge="1" parent="1" source="e4gDPcq4KXXT7IiUsTkn-4" target="e4gDPcq4KXXT7IiUsTkn-6">
          <mxGeometry relative="1" as="geometry" />
        </mxCell>
        <mxCell id="e4gDPcq4KXXT7IiUsTkn-4" value="media = (num1 + num2) / 2" style="whiteSpace=wrap;html=1;" vertex="1" parent="1">
          <mxGeometry x="390" y="270" width="166" height="60" as="geometry" />
        </mxCell>
        <mxCell id="e4gDPcq4KXXT7IiUsTkn-9" value="" style="edgeStyle=orthogonalEdgeStyle;rounded=0;orthogonalLoop=1;jettySize=auto;html=1;" edge="1" parent="1" source="e4gDPcq4KXXT7IiUsTkn-6" target="e4gDPcq4KXXT7IiUsTkn-8">
          <mxGeometry relative="1" as="geometry" />
        </mxCell>
        <mxCell id="e4gDPcq4KXXT7IiUsTkn-6" value="media" style="shape=document;whiteSpace=wrap;html=1;boundedLbl=1;" vertex="1" parent="1">
          <mxGeometry x="413" y="350" width="120" height="80" as="geometry" />
        </mxCell>
        <mxCell id="e4gDPcq4KXXT7IiUsTkn-8" value="fim" style="ellipse;whiteSpace=wrap;html=1;" vertex="1" parent="1">
          <mxGeometry x="433" y="430" width="80" height="80" as="geometry" />
        </mxCell>
      </root>
    </mxGraphModel>
  </diagram>
</mxfile>
